# Blender v2.91.2 OBJ File: 'battleground.blend'
# www.blender.org
mtllib catapult_border_1.mtl
o catapult_border_1_Cube.012
v 2.429769 0.005000 3.631851
v 3.631850 0.005000 4.833933
v 3.631850 0.005000 2.429770
v 4.833931 0.005000 3.631851
v 4.964675 0.005000 3.631851
v 3.631850 0.005000 4.964677
v 3.631850 0.005000 2.299026
v 2.299024 0.005000 3.631851
vt 0.137734 1.000229
vt 0.121206 -0.163705
vt 0.285912 -0.288578
vt 0.301796 1.000176
vt 0.137734 1.000229
vt 0.121206 -0.163705
vt 0.285912 -0.288578
vt 0.301796 1.000176
vt 0.137734 1.000229
vt 0.121206 -0.163705
vt 0.285912 -0.288578
vt 0.301796 1.000176
vn 0.0000 -1.0000 0.0000
usemtl Attention_stripes
s off
f 4/1/1 3/2/1 7/3/1 5/4/1
f 3/5/1 1/6/1 8/7/1 7/8/1
f 2/9/1 4/10/1 5/11/1 6/12/1
f 1/6/1 2/9/1 6/12/1 8/7/1
