# Blender v2.91.2 OBJ File: 'battleground.blend'
# www.blender.org
mtllib catapult_body_3.mtl
o catapult_body_3_Cube.006
v -3.631935 0.005000 4.834017
v -2.429853 0.005000 3.631936
v -4.834016 0.005000 3.631936
v -3.631935 0.005000 2.429855
v -3.631935 -0.995000 2.429855
v -4.834016 -0.995000 3.631936
v -3.631935 -0.995000 4.834017
v -2.429853 -0.995000 3.631936
vt 1.000000 1.000000
vt 0.000000 1.000000
vt 0.000000 0.000000
vt 1.000000 0.000000
vt 0.329412 0.667647
vt 0.354412 0.667647
vt 0.354412 0.692647
vt 0.329412 0.692647
vt 0.250000 1.000000
vt 0.000000 0.852941
vt 0.250000 0.852941
vt 0.500000 1.000000
vt 0.500000 0.852941
vt 1.000000 1.000000
vt 0.750000 1.000000
vt 0.750000 0.852941
vt 1.000000 0.852941
vn 0.0000 1.0000 0.0000
vn 0.0000 -1.0000 0.0000
vn 0.7071 0.0000 -0.7071
vn -0.7071 0.0000 -0.7071
vn 0.7071 0.0000 0.7071
vn -0.7071 0.0000 0.7071
usemtl Catapult_top
s off
f 1/1/1 2/2/1 4/3/1 3/4/1
f 7/5/2 6/6/2 5/7/2 8/8/2
usemtl Catapult_wall
f 4/9/3 2/2/3 8/10/3 5/11/3
f 3/12/4 4/9/4 5/11/4 6/13/4
f 2/14/5 1/15/5 7/16/5 8/17/5
f 1/15/6 3/12/6 6/13/6 7/16/6
