# Blender v2.91.2 OBJ File: 'battleground.blend'
# www.blender.org
mtllib catapult_body_4.mtl
o catapult_body_4_Cube.005
v -5.985936 0.005000 0.850000
v -4.285936 0.005000 0.850001
v -5.985935 0.005000 -0.850000
v -4.285935 0.005000 -0.849999
v -4.285935 -0.995000 -0.849999
v -5.985935 -0.995000 -0.850000
v -5.985936 -0.995000 0.850000
v -4.285936 -0.995000 0.850001
vt 1.000000 1.000000
vt 0.000000 1.000000
vt 0.000000 0.000000
vt 1.000000 0.000000
vt 0.329412 0.667647
vt 0.354412 0.667647
vt 0.354412 0.692647
vt 0.329412 0.692647
vt 0.250000 1.000000
vt 0.000000 1.000000
vt 0.000000 0.852941
vt 0.250000 0.852941
vt 0.500000 1.000000
vt 0.250000 1.000000
vt 0.250000 0.852941
vt 0.500000 0.852941
vt 1.000000 1.000000
vt 0.750000 1.000000
vt 0.750000 0.852941
vt 1.000000 0.852941
vt 0.750000 1.000000
vt 0.500000 1.000000
vt 0.500000 0.852941
vt 0.750000 0.852941
vn 0.0000 1.0000 0.0000
vn 0.0000 -1.0000 0.0000
vn -0.0000 0.0000 1.0000
vn -1.0000 0.0000 -0.0000
vn 1.0000 0.0000 0.0000
vn 0.0000 0.0000 -1.0000
usemtl Catapult_top
s off
f 1/1/1 2/2/1 4/3/1 3/4/1
f 7/5/2 6/6/2 5/7/2 8/8/2
usemtl Catapult_wall
f 2/9/3 1/10/3 7/11/3 8/12/3
f 1/13/4 3/14/4 6/15/4 7/16/4
f 4/17/5 2/18/5 8/19/5 5/20/5
f 3/21/6 4/22/6 5/23/6 6/24/6
