# Blender v2.91.2 OBJ File: 'battleground.blend'
# www.blender.org
mtllib catapult_border_4.mtl
o catapult_border_4_Cube.015
v -4.285936 0.005000 0.850001
v -4.285935 0.005000 -0.849999
v -5.985935 0.005000 0.850000
v -5.985935 0.005000 -0.849999
v -6.078385 0.005000 -0.942450
v -4.193485 0.005000 -0.942449
v -6.078385 0.005000 0.942450
v -4.193486 0.005000 0.942451
vt 0.137734 1.000229
vt 0.121206 -0.163705
vt 0.285912 -0.288578
vt 0.301796 1.000176
vt 0.137734 1.000229
vt 0.121206 -0.163705
vt 0.285912 -0.288578
vt 0.301796 1.000176
vt 0.137734 1.000229
vt 0.121206 -0.163705
vt 0.285912 -0.288578
vt 0.301796 1.000176
vn 0.0000 -1.0000 0.0000
usemtl Attention_stripes
s off
f 4/1/1 3/2/1 7/3/1 5/4/1
f 3/5/1 1/6/1 8/7/1 7/8/1
f 2/9/1 4/10/1 5/11/1 6/12/1
f 1/6/1 2/9/1 6/12/1 8/7/1
